:SAMPLES-PER-SECOND 30
:FULLY-SPECIFIED
:DEGREES
329
root  -7.28901 34.9673 -28.2653 -171.147 59.0539 -179.81
RightUpLeg  -4.08947 -15.236 -0.081403
RightLeg  0.41632 -4.15388 0.237503
RightFoot  6.82652 0.0545524 -0.367358
RightToes  -22.9518 -0.0993727 -0.20011
Spine  -1.75489 2.21939 -3.76645
Spine1  -3.25544 4.04621 -6.55243
HEad  -70.1359 -31.885 4.01158
LeftShoulder1  -1.94126e-019 -3.10601e-018 -2.51263e-017
LeftArm  21.3936 16.0497 -66.9369
LeftForeArm  41.954 -71.3554 -30.1392
LeftHand  -0.376348 -3.80159 5.01862
RightShoulder  -4.96962e-017 0 -2.36833e-017
RightArm  2.66082 46.5826 70.126
RightForeArm  56.5214 57.6158 12.8766
RightHand  -0.815169 2.11955 -12.7588
LeftUpLeg  -5.52007 7.4947 0.575183
LeftLeg  5.36442 21.9735 0.629041
LeftFoot  4.44992 -0.0653148 1.93419
LeftToes  -11.9874 2.25955e-006 -3.67304e-008
330
root  -7.30718 34.9673 -28.1987 -170.768 58.8474 -179.765
RightUpLeg  -4.5291 -15.3899 0.135341
RightLeg  0.482759 -4.16963 0.233576
RightFoot  6.80208 0.0540026 -0.362807
RightToes  -22.9186 -0.0989992 -0.199864
Spine  -1.58375 2.18065 -3.79731
Spine1  -2.94477 4.01432 -6.6257
HEad  -71.8267 -31.2608 4.30762
LeftShoulder1  -1.94126e-019 -3.10601e-018 -2.51263e-017
LeftArm  20.3236 16.5009 -67.1659
LeftForeArm  46.3533 -73.9058 -36.3218
LeftHand  -0.373615 -3.59483 5.0854
RightShoulder  -4.96962e-017 0 -2.36833e-017
RightArm  -0.710008 43.0248 67.9604
RightForeArm  58.4847 68.1376 21.7721
RightHand  -0.638491 1.02832 -11.661
LeftUpLeg  -6.15349 7.7008 0.6358
LeftLeg  5.72825 21.5944 0.752676
LeftFoot  4.40743 -0.0617027 1.88665
LeftToes  -11.9549 2.25955e-006 -3.67304e-008
331
root  -7.31944 34.966 -28.1413 -170.547 58.903 -179.716
RightUpLeg  -4.8285 -15.311 0.281138
RightLeg  0.575083 -4.16078 0.226387
RightFoot  6.74597 0.053147 -0.354088
RightToes  -22.8373 -0.0986001 -0.199528
Spine  -1.44566 2.07264 -3.71033
Spine1  -2.69449 3.83288 -6.46866
HEad  -72.8181 -29.9758 3.48661
LeftShoulder1  -1.94126e-019 -3.10601e-018 -2.51263e-017
LeftArm  18.5663 17.3558 -67.9511
LeftForeArm  49.0639 -75.0876 -40.1739
LeftHand  -0.383523 -3.41417 5.30852
RightShoulder  -4.96962e-017 0 -2.36833e-017
RightArm  -2.75966 40.4828 68.1666
RightForeArm  70.5963 75.5866 35.9852
RightHand  -0.631025 0.317671 -12.8959
LeftUpLeg  -6.35806 7.80478 0.691372
LeftLeg  5.64525 21.5576 0.720934
LeftFoot  4.48537 -0.0630933 1.9156
LeftToes  -11.8672 2.25955e-006 -3.67304e-008
332
root  -7.31919 34.9682 -28.0962 -170.412 59.2066 -179.696
RightUpLeg  -4.98409 -15.3094 0.375227
RightLeg  0.48136 -3.85051 0.215807
RightFoot  6.85633 0.051145 -0.329186
RightToes  -22.8864 -0.0981796 -0.199136
Spine  -1.55793 1.83246 -3.57631
Spine1  -2.89532 3.33059 -6.19349
HEad  -71.7386 -28.5394 1.55124
LeftShoulder1  -1.94126e-019 -3.10601e-018 -2.51263e-017
LeftArm  16.8529 18.3957 -69.068
LeftForeArm  47.3385 -74.6617 -38.8714
LeftHand  -0.410423 -3.11949 5.83948
RightShoulder  -4.96962e-017 0 -2.36833e-017
RightArm  -1.88487 40.329 70.3516
RightForeArm  67.4103 74.963 34.5399
RightHand  -0.68805 -1.61046 -20.9531
LeftUpLeg  -6.25081 7.9943 0.718071
LeftLeg  5.16545 21.6733 0.54735
LeftFoot  4.79362 -0.0710854 2.04578
LeftToes  -12.4418 2.25955e-006 -3.67304e-008
333
root  -7.30832 34.972 -28.0559 -170.325 59.7395 -179.676
RightUpLeg  -5.06844 -15.1576 0.448189
RightLeg  0.329545 -3.49194 0.204958
RightFoot  6.94439 0.0486896 -0.298006
RightToes  -22.8235 -0.0977418 -0.198696
Spine  -1.81019 1.53754 -3.40465
Spine1  -3.35544 2.6978 -5.83111
HEad  -69.2526 -27.1015 -0.346562
LeftShoulder1  -1.94126e-019 -3.10601e-018 -2.51263e-017
LeftArm  15.0126 19.0445 -70.6978
LeftForeArm  43.2162 -72.7118 -33.3149
LeftHand  -0.408838 -3.02267 5.87823
RightShoulder  -4.96962e-017 0 -2.36833e-017
RightArm  -0.22844 41.8124 74.0086
RightForeArm  60.476 69.1199 22.8822
RightHand  -0.515669 -2.95387 -24.194
LeftUpLeg  -5.97469 8.28788 0.736069
LeftLeg  4.53406 21.8964 0.317248
LeftFoot  5.07122 -0.0791486 2.17553
LeftToes  -12.5533 2.25955e-006 -3.67304e-008
334
root  -7.2848 34.9662 -28.0337 -170.266 60.3656 -179.547
RightUpLeg  -5.02648 -14.7212 0.504364
RightLeg  0.238002 -3.29262 0.198515
RightFoot  6.9847 0.0469554 -0.277338
RightToes  -22.7218 -0.0972911 -0.198217
Spine  -1.90345 1.4952 -3.22322
Spine1  -3.53477 2.60904 -5.45665
HEad  -67.8528 -26.2099 -0.568087
LeftShoulder1  -1.94126e-019 -3.10601e-018 -2.51263e-017
LeftArm  14.0941 18.5518 -72.432
LeftForeArm  41.9537 -70.4414 -28.1515
LeftHand  -0.399923 -2.94998 5.80035
RightShoulder  -4.96962e-017 0 -2.36833e-017
RightArm  -0.907941 41.6082 76.1084
RightForeArm  56.9525 65.9092 19.3114
RightHand  -0.759667 -0.755469 -18.9502
LeftUpLeg  -5.56904 8.55586 0.800966
LeftLeg  4.01755 22.2501 0.126598
LeftFoot  5.20064 -0.0847375 2.26515
LeftToes  -12.8533 2.25955e-006 -3.67304e-008
335
root  -7.24935 34.9611 -28.034 -170.258 60.7371 -179.429
RightUpLeg  -4.89782 -14.3111 0.52335
RightLeg  0.205621 -3.34152 0.203347
RightFoot  6.93439 0.0466648 -0.2775
RightToes  -22.548 -0.0968314 -0.197704
Spine  -1.86144 1.65862 -3.12408
Spine1  -3.46904 2.95373 -5.25261
HEad  -68.7937 -26.2306 1.27267
LeftShoulder1  -1.94126e-019 -3.10601e-018 -2.51263e-017
LeftArm  14.7196 17.7744 -73.3904
LeftForeArm  44.9819 -69.3356 -25.5709
LeftHand  -0.484335 -3.73059 6.4269
RightShoulder  -4.96962e-017 0 -2.36833e-017
RightArm  -0.740946 37.5616 73.7326
RightForeArm  61.1245 70.5662 25.1016
RightHand  -1.32016 1.86219 -21.1231
LeftUpLeg  -5.27945 8.75596 0.871581
LeftLeg  3.83262 22.4145 0.0569968
LeftFoot  5.12276 -0.0838784 2.25269
LeftToes  -12.6698 2.25955e-006 -3.67304e-008
336
root  -7.20297 34.9623 -28.0575 -170.291 60.7001 -179.433
RightUpLeg  -4.76811 -14.265 0.500366
RightLeg  0.188732 -3.43348 0.209951
RightFoot  6.87648 0.0469514 -0.286112
RightToes  -22.3686 -0.0963671 -0.197166
Spine  -1.84941 1.67539 -2.98768
Spine1  -3.43752 2.97737 -4.95768
HEad  -70.2767 -25.9593 2.70812
LeftShoulder1  -1.94126e-019 -3.10601e-018 -2.51263e-017
LeftArm  15.0831 17.8984 -73.7841
LeftForeArm  47.3724 -69.5533 -25.5417
LeftHand  -0.539152 -4.33436 6.71695
RightShoulder  -4.96962e-017 0 -2.36833e-017
RightArm  1.87042 31.9835 70.161
RightForeArm  81.2888 78.0737 45.3675
RightHand  -1.2322 0.607166 -23.7164
LeftUpLeg  -5.20165 8.87098 0.891586
LeftLeg  3.88524 22.2903 0.0766447
LeftFoot  5.05597 -0.0812913 2.21145
LeftToes  -12.4631 2.25955e-006 -3.67304e-008
